<svg width="24" height="24" viewBox="0 0 24 24" fill="none" xmlns="http://www.w3.org/2000/svg">
<path fill-rule="evenodd" clip-rule="evenodd" d="M9.70446 5.059e-07H9.76744C10.2298 5.059e-07 10.6047 0.374836 10.6047 0.83721C10.6047 1.29958 10.2298 1.67442 9.76744 1.67442C7.6389 1.67442 6.12671 1.67619 4.97955 1.83043C3.85648 1.98142 3.20943 2.26458 2.73701 2.73701C2.26458 3.20943 1.98142 3.85648 1.83043 4.97955C1.67619 6.12671 1.67442 7.6389 1.67442 9.76744C1.67442 10.2298 1.29958 10.6047 0.83721 10.6047C0.374836 10.6047 5.059e-07 10.2298 5.059e-07 9.76744V9.70446C-2.18197e-05 7.65301 -3.30515e-05 6.02812 0.170947 4.75644C0.346895 3.4477 0.717634 2.3884 1.55301 1.55301C2.3884 0.717634 3.4477 0.346895 4.75644 0.170947C6.02812 -3.30515e-05 7.65301 -2.18197e-05 9.70446 5.059e-07ZM19.0205 1.83043C17.8733 1.67619 16.3611 1.67442 14.2326 1.67442C13.7702 1.67442 13.3953 1.29958 13.3953 0.83721C13.3953 0.374836 13.7702 5.059e-07 14.2326 5.059e-07H14.2955C16.347 -2.18197e-05 17.9719 -3.30515e-05 19.2435 0.170947C20.5523 0.346895 21.6116 0.717634 22.447 1.55301C23.2823 2.3884 23.6531 3.4477 23.8291 4.75644C24 6.02812 24 7.65302 24 9.70447V9.76744C24 10.2298 23.6252 10.6047 23.1628 10.6047C22.7004 10.6047 22.3256 10.2298 22.3256 9.76744C22.3256 7.6389 22.3238 6.12671 22.1695 4.97955C22.0186 3.85648 21.7354 3.20943 21.263 2.73701C20.7906 2.26458 20.1435 1.98142 19.0205 1.83043ZM0.83721 13.3953C1.29958 13.3953 1.67442 13.7702 1.67442 14.2326C1.67442 16.3611 1.67619 17.8733 1.83043 19.0205C1.98142 20.1435 2.26458 20.7906 2.73701 21.263C3.20943 21.7354 3.85648 22.0186 4.97955 22.1695C6.12671 22.3238 7.6389 22.3256 9.76744 22.3256C10.2298 22.3256 10.6047 22.7004 10.6047 23.1628C10.6047 23.6252 10.2298 24 9.76744 24H9.70447C7.65302 24 6.02812 24 4.75644 23.8291C3.4477 23.6531 2.3884 23.2823 1.55301 22.447C0.717634 21.6116 0.346895 20.5523 0.170947 19.2435C-3.30515e-05 17.9719 -2.18197e-05 16.347 5.059e-07 14.2955V14.2326C5.059e-07 13.7702 0.374836 13.3953 0.83721 13.3953ZM23.1628 13.3953C23.6252 13.3953 24 13.7702 24 14.2326V14.2955C24 16.347 24 17.9719 23.8291 19.2435C23.6531 20.5523 23.2823 21.6116 22.447 22.447C21.6116 23.2823 20.5523 23.6531 19.2435 23.8291C17.9719 24 16.347 24 14.2955 24H14.2326C13.7702 24 13.3953 23.6252 13.3953 23.1628C13.3953 22.7004 13.7702 22.3256 14.2326 22.3256C16.3611 22.3256 17.8733 22.3238 19.0205 22.1695C20.1435 22.0186 20.7906 21.7354 21.263 21.263C21.7354 20.7906 22.0186 20.1435 22.1695 19.0205C22.3238 17.8733 22.3256 16.3611 22.3256 14.2326C22.3256 13.7702 22.7004 13.3953 23.1628 13.3953Z" fill="currentColor" />
</svg>
