<svg width="24" height="28" viewBox="0 0 24 28" fill="none" xmlns="http://www.w3.org/2000/svg">
<path d="M9.25 14L14.75 19.5556M14.75 14L9.25 19.5556M1 5.66667H23M17.5 5.66667L17.1279 4.53899C16.7673 3.44618 16.5869 2.89978 16.2525 2.49581C15.9571 2.13907 15.5779 1.86294 15.1494 1.69275C14.6642 1.5 14.0941 1.5 12.9537 1.5H11.0463C9.90588 1.5 9.3358 1.5 8.85058 1.69275C8.42214 1.86294 8.04286 2.13907 7.74752 2.49581C7.41307 2.89978 7.23277 3.44618 6.87213 4.53899L6.5 5.66667M20.25 5.66667V19.8333C20.25 22.1669 20.25 23.3336 19.8004 24.225C19.4049 25.009 18.7739 25.6464 17.9977 26.0458C17.1153 26.5 15.9603 26.5 13.65 26.5H10.35C8.03978 26.5 6.88467 26.5 6.00229 26.0458C5.22612 25.6464 4.59508 25.009 4.1996 24.225C3.75 23.3336 3.75 22.1669 3.75 19.8333V5.66667" stroke="currentColor" stroke-width="2" stroke-linecap="round" stroke-linejoin="round"/>
</svg>
